<?xml version="1.0" encoding="utf-8"?>
<!-- Generator: Adobe Illustrator 23.0.1, SVG Export Plug-In . SVG Version: 6.00 Build 0)  -->
<svg version="1.1" id="Layer_1" xmlns="http://www.w3.org/2000/svg" xmlns:xlink="http://www.w3.org/1999/xlink" x="0px" y="0px"
	 viewBox="0 0 612 612" style="enable-background:new 0 0 612 612;" xml:space="preserve">
<style type="text/css">
	.st0{fill:#009CDF;}
	.st1{fill:#FFFFFF;}
</style>
<g>
	<path class="st0" d="M162.2,612h287.7c89.6,0,162.2-72.6,162.2-162.2V162.2C612,72.6,539.4,0,449.8,0L162.2,0
		C72.6,0,0,72.6,0,162.2l0,287.7C0,539.4,72.6,612,162.2,612z"/>
	<path class="st1" d="M465.2,217.5C465.2,91.2,401.4,48,306,48c-94,0-161.2,44.6-161.2,169.5v178.4C144.8,520.7,212,564,306,564
		c33.6,0,63.8-8.2,88.5-19.9l71.9,66.2c24.1-2.5,46.5-9.9,66.2-21.8l-90.1-86.3c15.8-25.4,22.7-69.3,22.7-116.7V217.5z M369.1,380.8
		c0,20.6-1.4,46.7-2,50.8l-14.4-14.4L306,462.4l22.7,20.6c-4.8,3.4-15.8,5.5-22.7,5.5c-44.6,0-65.2-27.5-65.2-79.6V205.1
		c0-52.1,20.6-81.7,65.2-81.7c40.5,0,63.1,32.3,63.1,84.4V380.8z"/>
</g>
</svg>
