<svg xmlns="http://www.w3.org/2000/svg" viewBox="0 0 159.18 58.16"><defs><style>.cls-1{fill:none;}.cls-2{fill:#009de0;}.cls-3{fill:#9c9b9b;}</style></defs><title>QSTN_logo_v2</title><g id="Layer_3" data-name="Layer 3"><rect class="cls-1" width="159.18" height="58.16"/><rect class="cls-1" y="50.54" width="7.61" height="7.61"/></g><g id="Layer_1" data-name="Layer 1"><path class="cls-2" d="M33.7,54l-4.52-4.16a18,18,0,0,1-7.67,1.72c-8.14,0-14-3.74-14-14.56V21.53c0-10.82,5.83-14.69,14-14.69s13.8,3.75,13.8,14.69V36.09c0,4.11-.6,7.91-2,10.11l4.22,4ZM25.56,38.83l1.24,1.25c.06-.36.18-2.62.18-4.4v-15c0-4.51-2-7.31-5.47-7.31-3.86,0-5.65,2.56-5.65,7.08V38.11c0,4.52,1.79,6.9,5.65,6.9a4.2,4.2,0,0,0,2-.47l-2-1.79Z"/><path class="cls-2" d="M72,21.17v-.48c0-5.23-1.91-7.31-5.12-7.31-2.31,0-4.34,1.25-4.34,3.63a5.12,5.12,0,0,0,2.74,4.87l8.32,5.53c4.52,3,7.32,5.65,7.32,12.07,0,7.55-4.64,12.07-13.2,12.07C58.64,51.55,54,46.26,54,37.46V35.79h7.79v1.67c0,6,2.86,7.55,5.95,7.55a4.55,4.55,0,0,0,4.81-4.81c0-2.8-1.42-4.46-4.46-6.43L60.84,29c-4.28-2.8-6.42-6.42-6.42-11.06,0-7.08,5.23-11.12,12.66-11.12,8.15,0,12.73,4.4,12.73,13v1.31Z"/><path class="cls-2" d="M100.83,50.54H92.69V14.15H82.82V7.61H110.7v6.54h-9.87Z"/><path class="cls-2" d="M133,7.61l11.89,31.22H145a96.21,96.21,0,0,1-1-16V7.61h7.61V50.54h-8.8L130.88,19.39h-.06c.89,4.16,1,11.59,1,15.93V50.54h-7.61V7.61Z"/><rect class="cls-1" x="151.57" width="7.61" height="7.61"/><rect class="cls-1" x="118.28" y="39.02" width="5.94" height="5.94"/></g><g id="Layer_2" data-name="Layer 2"><path class="cls-3" d="M43.05,7.62V19.33c0,1.28.62,2,1.75,2s1.76-.71,1.76-2V7.62h3.65V23.85H46.73V22.19a3.52,3.52,0,0,1-3.29,2.14c-2.23,0-4-1.37-4-4.64V7.62Z"/><path class="cls-3" d="M42.87,36.27v3.54c0,1.19.74,1.78,1.93,1.78a1.71,1.71,0,0,0,1.93-1.78v-.92h3.66v.44c0,3.66-2.35,5.15-5.59,5.15S39.21,43,39.21,39.33V32.5c0-3.69,2.35-5.15,5.59-5.15s5.59,1.49,5.59,5.15v3.77Zm3.86-2.67V32a1.71,1.71,0,0,0-1.93-1.78c-1.19,0-1.93.59-1.93,1.78V33.6Z"/><path class="cls-3" d="M114.35,30.32H110.7V14.15h3.65Z"/><path class="cls-3" d="M118.28,39.19v6.54c0,2.82-1.49,5.29-5.74,5.29s-5.77-2.47-5.77-5.29V39.19c0-2.83,1.43-5.3,5.77-5.3S118.28,36.36,118.28,39.19Zm-7.7-.48V46.2a1.74,1.74,0,0,0,2,1.93c1.19,0,1.9-.41,1.9-1.93V38.71c0-1.52-.74-1.93-1.93-1.93S110.58,37.22,110.58,38.71Z"/><rect class="cls-3" x="110.7" y="14.15" width="3.66" height="3.66"/></g></svg>